<?xml version="1.0" standalone="no"?>
<!DOCTYPE svg PUBLIC "-//W3C//DTD SVG 20010904//EN"
 "http://www.w3.org/TR/2001/REC-SVG-20010904/DTD/svg10.dtd">
<svg version="1.0" xmlns="http://www.w3.org/2000/svg"
 width="512.000000pt" height="512.000000pt" viewBox="0 0 512.000000 512.000000"
 preserveAspectRatio="xMidYMid meet">
<metadata>
Created by potrace 1.14, written by Peter Selinger 2001-2017
</metadata>
<g transform="translate(0.000000,512.000000) scale(0.100000,-0.100000)"
fill="#000000" stroke="none">
<path d="M2258 4859 c-10 -5 -18 -6 -18 -2 0 4 -4 3 -8 -2 -4 -6 -30 -21 -59
-34 -29 -13 -50 -28 -47 -32 2 -4 -4 -10 -15 -14 -17 -5 -87 -65 -76 -65 3 0
-4 -9 -15 -20 -11 -11 -20 -27 -20 -35 0 -8 -5 -15 -12 -15 -6 0 -8 -3 -5 -6
4 -4 -2 -19 -11 -33 -10 -15 -18 -43 -17 -64 0 -21 -3 -41 -7 -43 -13 -8 -9
-26 5 -18 6 4 3 -3 -8 -16 -11 -13 -14 -20 -7 -16 9 5 12 -3 12 -28 0 -48 0
-49 12 -63 8 -9 7 -13 -3 -13 -10 0 -11 -3 -3 -8 9 -5 8 -11 -2 -20 -12 -11
-14 -10 -14 3 0 9 -4 14 -9 10 -6 -3 -14 3 -20 12 -7 13 -10 14 -11 4 0 -9 -7
-5 -20 10 -11 13 -26 31 -33 39 -19 20 -42 63 -39 73 1 4 -3 7 -9 7 -5 0 -8 4
-4 9 10 17 -15 23 -30 7 -8 -8 -15 -17 -15 -20 0 -6 -24 -37 -49 -63 -7 -7
-11 -17 -8 -20 3 -3 -1 -12 -9 -20 -8 -8 -12 -19 -9 -24 4 -5 2 -9 -3 -9 -9 0
-26 -56 -23 -74 1 -4 -4 -15 -11 -24 -11 -13 -11 -14 2 -7 12 7 13 6 4 -6 -6
-8 -10 -34 -9 -58 1 -31 -4 -45 -15 -49 -8 -3 -31 -16 -51 -28 -20 -13 -40
-20 -45 -16 -4 4 -4 1 0 -6 4 -7 0 -15 -11 -19 -31 -11 -79 -48 -144 -108 -9
-8 -21 -15 -27 -15 -7 0 -12 -7 -12 -15 0 -8 -3 -15 -7 -15 -13 0 -73 -57 -67
-63 3 -3 -4 -8 -15 -12 -12 -3 -21 -9 -21 -13 0 -6 -15 -24 -85 -104 -13 -14
-21 -29 -18 -32 4 -3 2 -6 -4 -6 -9 0 -77 -96 -72 -102 2 -2 -9 -16 -24 -32
-15 -16 -25 -31 -23 -34 3 -2 -2 -11 -10 -19 -8 -8 -12 -19 -9 -24 4 -5 1 -9
-4 -9 -6 0 -11 -7 -11 -15 0 -8 -5 -15 -11 -15 -6 0 -8 -7 -5 -16 3 -8 2 -13
-3 -10 -5 3 -17 -17 -27 -44 -10 -28 -22 -50 -26 -50 -4 0 -7 -3 -6 -7 1 -5
-3 -19 -10 -33 -6 -14 -18 -46 -28 -72 -9 -27 -20 -48 -23 -48 -4 0 -8 -9 -9
-20 -4 -44 -6 -50 -14 -50 -5 0 -6 -4 -3 -10 3 -5 3 -16 -2 -22 -8 -13 -13
-33 -15 -55 -1 -7 -5 -13 -10 -13 -5 0 -6 -4 -3 -10 3 -5 2 -18 -4 -27 -7 -13
-5 -23 7 -38 16 -18 16 -19 0 -7 -11 9 -18 10 -23 2 -3 -5 0 -10 7 -10 14 -1
-37 -31 -57 -34 -7 -1 -21 -8 -31 -16 -13 -11 -16 -12 -10 -1 6 8 0 7 -18 -4
-14 -10 -26 -14 -26 -10 0 12 -67 -58 -68 -72 -1 -7 -3 -20 -4 -28 -1 -8 -6
-15 -12 -15 -6 0 -4 -5 4 -10 8 -5 10 -10 5 -10 -6 0 -11 -9 -11 -20 0 -11 5
-20 11 -20 5 0 3 -5 -5 -10 -8 -5 -10 -10 -3 -10 6 0 9 -9 6 -20 -3 -12 0 -20
7 -20 7 0 10 -7 6 -15 -3 -10 8 -28 31 -50 34 -32 50 -39 79 -36 6 1 10 -16
10 -39 -1 -22 2 -40 5 -40 3 0 5 -11 4 -25 -2 -14 1 -27 5 -30 5 -3 7 -12 4
-20 -4 -8 -10 -12 -15 -9 -6 3 -16 0 -24 -6 -8 -7 -22 -10 -30 -6 -9 3 -13 2
-10 -4 3 -6 -1 -10 -10 -10 -10 0 -13 -5 -9 -12 5 -7 2 -9 -9 -5 -9 3 -18 0
-21 -9 -3 -9 -10 -12 -16 -9 -6 3 -14 -4 -19 -17 -6 -13 -10 -19 -10 -14 -1 5
-19 -10 -40 -34 -22 -25 -38 -47 -35 -51 2 -4 -3 -10 -12 -13 -8 -3 -13 -10
-10 -15 3 -5 -1 -12 -10 -15 -9 -4 -14 -9 -10 -13 3 -3 -2 -15 -11 -26 -10
-11 -13 -17 -6 -14 8 5 8 1 0 -17 -7 -13 -14 -23 -17 -21 -3 2 -6 -18 -8 -44
-1 -25 -6 -47 -10 -49 -9 -3 -7 -86 2 -101 4 -6 3 -11 -2 -11 -5 0 -7 -19 -5
-43 3 -23 6 -55 8 -72 2 -16 4 -31 5 -32 2 -2 4 -7 5 -13 1 -5 3 -11 5 -12 2
-4 11 -41 12 -55 1 -7 5 -13 10 -13 5 0 6 -5 3 -10 -3 -6 -1 -10 5 -10 7 0 10
-6 7 -14 -3 -8 -2 -16 3 -18 5 -2 11 -14 13 -27 2 -13 12 -30 22 -37 10 -8 16
-14 12 -14 -5 0 -3 -6 3 -13 41 -48 54 -65 67 -84 8 -13 19 -21 23 -18 5 3 11
-4 15 -15 3 -11 11 -20 17 -20 6 0 19 -10 29 -22 11 -11 19 -18 19 -14 0 4 7
1 15 -6 31 -28 45 -38 50 -37 7 1 59 -18 92 -33 12 -6 33 -8 47 -6 16 3 23 1
19 -5 -4 -6 0 -8 10 -4 10 3 17 2 17 -2 0 -11 19 -9 38 2 7 5 12 4 12 -2 0 -8
7 -7 20 1 16 11 22 9 34 -7 8 -11 12 -23 10 -27 -3 -5 -1 -8 5 -8 5 0 15 -16
21 -35 6 -19 15 -35 20 -35 5 0 11 -14 15 -30 4 -17 11 -30 16 -30 6 0 7 -5 4
-10 -3 -6 1 -13 9 -16 9 -3 16 -12 16 -20 0 -8 5 -14 11 -14 5 0 8 -4 4 -9 -3
-5 3 -16 12 -23 10 -7 19 -19 21 -27 1 -7 8 -19 15 -26 7 -7 23 -28 37 -46 14
-18 37 -46 53 -61 15 -16 27 -31 27 -34 0 -3 7 -12 15 -20 8 -9 15 -13 15 -11
0 2 22 -16 48 -42 27 -25 57 -53 68 -61 10 -8 38 -30 60 -48 23 -17 47 -32 53
-32 6 0 11 -4 11 -10 0 -5 7 -10 15 -10 8 0 15 -4 15 -9 0 -5 14 -14 31 -20
19 -7 28 -15 23 -22 -4 -7 -3 -9 4 -5 6 3 13 2 17 -4 3 -5 15 -10 26 -10 11 0
22 -7 26 -16 5 -13 7 -13 14 -2 7 10 9 10 9 1 0 -7 7 -13 15 -13 8 0 15 -4 15
-10 0 -5 3 -9 8 -9 18 3 33 -2 28 -10 -3 -4 6 -7 19 -5 14 1 25 -2 25 -8 0 -6
7 -8 15 -4 8 3 15 1 15 -4 0 -6 8 -10 18 -10 10 0 23 -5 30 -12 7 -7 12 -9 12
-5 0 4 9 3 21 -4 12 -6 37 -13 56 -15 20 -3 41 -8 47 -11 6 -4 20 -9 31 -11
35 -5 60 -10 60 -12 0 -2 58 -9 93 -11 12 -1 22 -7 22 -13 0 -6 5 -4 10 4 5 8
10 10 10 4 0 -7 18 -12 43 -12 90 0 148 -6 153 -14 3 -5 11 -5 17 0 16 13 49
12 66 -2 12 -9 13 -8 6 3 -6 11 -4 13 8 8 9 -3 18 -1 21 6 3 9 5 8 5 -1 1 -7
5 -11 9 -8 4 2 47 6 95 7 52 2 87 7 87 14 0 6 3 7 8 0 10 -14 35 -18 26 -4 -4
7 -1 10 7 7 8 -3 26 -1 42 3 17 5 27 4 27 -3 0 -7 4 -7 13 -1 6 5 24 8 40 7
15 -2 25 0 23 5 -3 4 4 8 15 8 12 1 17 -3 13 -10 -3 -7 0 -5 8 3 7 8 28 15 46
14 17 -1 32 2 32 6 0 7 16 10 63 11 15 1 27 5 27 9 0 7 36 17 78 22 6 1 12 5
12 9 0 4 9 6 20 4 12 -2 23 1 26 8 2 7 16 13 31 14 15 0 29 6 31 12 2 6 8 11
13 11 6 0 7 -6 3 -12 -4 -7 2 -5 13 5 11 9 23 14 26 10 4 -3 7 -1 7 6 0 7 6
11 12 9 7 -3 19 1 26 9 7 7 22 13 33 13 11 0 18 4 15 9 -3 5 7 11 23 14 16 3
35 13 43 21 8 8 23 16 34 18 10 2 26 10 35 18 38 33 47 39 53 33 3 -4 6 -1 6
5 0 7 7 12 15 12 8 0 15 5 15 10 0 6 6 10 14 10 8 0 23 11 34 25 11 13 21 22
24 20 2 -2 30 20 62 50 32 30 62 55 68 55 5 0 6 5 3 10 -3 6 1 10 10 10 9 0
13 5 10 10 -3 6 1 10 9 10 9 0 16 5 16 10 0 6 14 24 30 42 17 17 30 35 30 39
0 5 7 9 16 9 8 0 13 4 10 8 -3 5 3 18 13 29 10 10 24 29 30 41 7 13 17 20 24
16 7 -4 9 -4 5 1 -4 4 -2 15 5 23 10 13 9 15 -3 8 -10 -5 -10 -3 2 6 9 8 26
33 38 56 12 23 27 42 33 42 6 0 8 3 4 6 -3 4 1 21 10 38 10 17 16 34 15 39 -1
4 3 7 9 7 5 0 7 5 4 10 -3 6 -1 10 5 10 6 0 9 4 5 9 -3 5 -1 12 5 16 6 4 8 11
5 16 -4 5 -1 9 4 9 6 0 11 9 11 20 0 11 4 20 8 20 4 0 9 8 10 18 5 49 10 66
20 70 7 2 10 8 7 12 -10 16 24 83 38 77 7 -3 33 -1 58 4 24 6 50 10 57 11 6 1
12 5 12 10 0 5 4 7 9 3 5 -3 15 0 23 7 7 7 20 14 28 16 8 2 23 11 33 19 9 9
17 12 17 7 0 -5 5 -1 11 9 6 9 14 15 19 12 5 -3 11 4 15 15 4 11 10 18 15 15
4 -3 21 11 36 31 33 42 59 74 74 91 6 7 10 14 9 15 -3 8 25 58 33 58 4 0 7 3
7 8 -1 4 0 10 1 15 4 12 7 26 9 38 0 5 5 8 10 5 4 -3 7 6 5 19 -1 14 2 25 7
25 4 0 6 7 3 15 -4 8 -2 15 4 15 5 0 9 10 9 23 1 50 3 58 16 51 9 -5 9 -4 0 6
-8 8 -9 20 -3 36 7 17 6 24 -2 24 -9 0 -9 3 -1 11 8 8 8 20 3 35 -7 17 -6 24
3 24 7 0 8 3 2 8 -12 8 -14 19 -18 80 -2 26 -8 56 -14 67 -6 11 -9 28 -8 38 2
9 -1 15 -6 11 -8 -4 -11 9 -8 32 0 4 -4 10 -9 13 -6 3 -12 13 -14 21 -2 8 -13
25 -25 39 -12 14 -20 28 -17 33 3 4 -3 8 -12 8 -10 0 -14 3 -11 6 7 7 -82 94
-96 94 -5 0 -15 7 -24 15 -8 8 -19 13 -24 10 -5 -4 -9 -2 -9 4 0 5 -15 13 -32
16 -18 4 -38 12 -45 17 -7 5 -16 7 -20 5 -10 -6 -44 18 -42 29 1 5 1 11 0 14
-6 18 -6 108 0 105 4 -3 10 2 13 11 4 9 13 14 21 10 9 -3 15 0 15 10 0 8 5 12
10 9 9 -6 14 8 11 28 0 4 6 7 14 7 9 0 12 6 9 15 -4 8 -1 15 5 15 6 0 11 5 11
11 0 5 -6 7 -12 4 -7 -4 -4 1 6 9 11 9 15 16 9 16 -6 0 -9 15 -6 36 2 19 0 33
-5 30 -4 -2 -9 4 -9 15 -1 13 2 17 10 12 9 -5 9 -3 0 8 -6 8 -11 16 -12 19 0
17 -15 39 -22 34 -5 -3 -9 0 -9 6 0 15 -26 41 -34 33 -3 -4 -6 -1 -6 6 0 7 -7
11 -15 8 -8 -4 -17 -1 -21 4 -3 6 -15 9 -25 6 -11 -3 -19 -1 -19 3 0 5 -11 7
-25 5 -14 -1 -28 2 -31 7 -3 4 -9 6 -14 3 -4 -3 -14 3 -21 12 -12 14 -12 16 0
8 8 -5 5 6 -8 23 -12 18 -19 32 -15 32 3 0 0 8 -7 17 -12 15 -12 16 1 8 8 -4
4 4 -9 18 -14 15 -21 27 -18 27 4 0 0 11 -9 25 -8 13 -12 30 -8 36 4 8 3 9 -4
5 -7 -4 -12 -1 -12 8 0 9 -4 16 -10 16 -5 0 -10 9 -10 20 0 11 -4 20 -9 20 -5
0 -15 16 -22 35 -7 19 -16 35 -20 35 -4 0 -12 14 -19 30 -7 17 -16 30 -21 30
-5 0 -9 6 -9 13 0 6 -11 25 -25 41 -14 16 -25 32 -25 35 0 3 -16 24 -35 46
-19 22 -35 46 -35 53 0 7 -4 11 -9 8 -5 -3 -23 15 -40 41 -17 25 -31 43 -31
38 0 -5 -9 1 -20 13 -11 12 -20 27 -20 33 0 7 -3 10 -6 6 -3 -3 -21 10 -40 29
-19 19 -39 34 -44 34 -6 0 -10 6 -10 14 0 8 -9 17 -20 21 -11 3 -34 21 -52 38
-19 18 -45 38 -58 45 -54 28 -70 39 -63 45 3 4 -4 7 -16 7 -15 0 -20 4 -15 13
4 6 4 9 -1 5 -7 -7 -62 17 -75 33 -6 7 -40 21 -60 25 -8 2 -16 8 -18 13 -2 6
-15 11 -28 11 -14 0 -22 4 -19 10 4 6 -5 10 -19 10 -14 0 -26 5 -26 11 0 6 -7
9 -15 5 -8 -3 -15 -1 -15 5 0 6 -6 9 -14 6 -8 -3 -16 -2 -18 3 -2 6 -15 11
-30 12 -16 1 -28 6 -28 10 0 4 -3 7 -7 6 -5 -1 -28 4 -52 11 -24 7 -53 13 -65
14 -11 2 -32 8 -45 16 -17 9 -21 10 -16 1 6 -9 3 -10 -10 -3 -10 6 -26 8 -36
6 -11 -3 -19 -1 -19 4 0 5 -12 9 -27 10 -89 2 -203 12 -212 18 -6 3 -11 1 -11
-6 0 -10 -3 -10 -11 -2 -7 7 -21 8 -39 3 -15 -4 -32 -5 -39 -1 -12 8 -69 6
-78 -3 -3 -3 -15 0 -27 6 -11 7 -23 13 -26 13 -12 1 -70 40 -70 47 0 4 -7 8
-15 8 -8 0 -15 8 -15 17 0 9 -3 14 -6 11 -8 -9 -41 26 -48 50 -4 11 -14 23
-22 26 -8 3 -13 10 -9 16 3 5 0 20 -6 32 -17 31 -19 155 -3 198 17 44 25 90
16 90 -4 0 -15 -5 -24 -11z m578 -1122 c4 -4 3 -7 -2 -7 -5 0 -10 -24 -11 -52
-2 -88 -6 -128 -14 -128 -4 0 -6 -13 -5 -30 1 -16 -2 -30 -7 -30 -4 0 -6 -4
-2 -9 3 -5 1 -12 -5 -16 -6 -4 -8 -11 -4 -16 3 -5 0 -16 -6 -24 -7 -8 -9 -15
-5 -15 4 0 0 -11 -9 -25 -9 -14 -14 -30 -11 -34 3 -5 1 -11 -4 -13 -5 -1 -12
-16 -16 -33 -5 -23 -4 -26 4 -15 10 13 11 13 11 0 0 -10 3 -11 8 -4 4 6 15 10
25 8 9 -1 17 2 17 8 0 6 9 8 20 5 11 -3 20 -2 20 1 0 4 12 8 26 9 15 0 30 7
35 15 7 10 9 10 9 -2 0 -13 1 -13 10 0 5 8 10 12 10 8 0 -4 16 0 35 8 19 8 35
12 35 10 0 -3 12 1 27 9 15 8 30 12 35 9 4 -3 11 1 14 9 3 9 13 13 25 10 11
-3 19 0 19 6 0 7 4 10 9 6 5 -3 12 -1 16 5 4 6 11 8 16 5 5 -4 9 -2 9 4 0 5
14 12 30 16 17 4 30 11 30 16 0 6 5 7 10 4 6 -3 13 0 16 8 2 7 11 14 19 15 8
1 22 3 30 4 8 1 12 5 10 9 -3 3 3 13 12 20 12 10 14 10 9 2 -12 -21 5 -15 25
8 10 11 23 18 29 14 6 -3 9 -1 8 6 -2 7 4 13 12 14 8 1 14 6 13 13 -2 6 8 14
22 18 14 3 25 10 25 15 0 5 7 9 16 9 18 0 77 -31 82 -43 2 -4 8 -5 13 -1 5 3
9 0 9 -5 0 -6 6 -10 13 -9 6 2 11 -2 10 -9 -2 -7 6 -10 17 -8 12 2 18 0 15 -4
-2 -5 8 -14 24 -21 16 -6 38 -20 50 -31 12 -11 21 -17 21 -14 0 5 32 -19 66
-51 13 -12 25 -19 28 -17 3 3 8 -2 12 -11 3 -9 11 -16 16 -16 13 0 168 -158
168 -170 0 -6 7 -10 16 -10 13 0 14 -3 5 -14 -8 -9 -22 -11 -51 -6 -23 4 -43
3 -46 -2 -3 -5 -11 -5 -17 -1 -7 5 -34 8 -62 6 -27 -1 -100 -4 -161 -6 -61 -2
-115 -6 -120 -9 -5 -2 -21 -4 -36 -3 -16 0 -28 -2 -28 -5 0 -5 -46 -8 -142
-11 -15 -1 -26 -4 -24 -8 3 -4 -13 -6 -35 -5 -21 0 -39 -3 -39 -8 0 -5 -9 -6
-20 -3 -11 4 -20 2 -20 -4 0 -6 -5 -11 -11 -11 -5 0 -8 4 -5 8 3 5 -1 9 -9 9
-8 0 -12 -4 -9 -8 2 -4 -4 -8 -13 -8 -27 1 -76 -11 -88 -21 -6 -5 -17 -5 -25
0 -8 5 -22 3 -34 -5 -12 -7 -40 -16 -63 -20 -24 -4 -45 -11 -49 -16 -3 -5 -10
-7 -15 -4 -5 4 -9 2 -9 -4 0 -5 -9 -8 -20 -6 -11 2 -20 0 -20 -6 0 -5 -9 -9
-20 -9 -11 0 -20 -6 -21 -12 0 -9 -2 -9 -6 1 -3 7 -8 9 -12 5 -9 -13 -91 -57
-91 -49 0 3 -10 -1 -22 -9 -17 -12 -25 -13 -36 -4 -10 9 -16 8 -23 -3 -7 -11
-9 -11 -9 -1 0 8 -6 12 -12 9 -7 -2 -21 0 -32 5 -13 7 -16 7 -11 -1 4 -8 -2
-10 -19 -7 -16 3 -26 0 -26 -7 0 -7 -4 -6 -10 3 -6 9 -13 11 -17 5 -5 -5 -26
-11 -47 -13 -22 -1 -44 -6 -50 -11 -14 -11 -66 -11 -66 0 0 5 -11 9 -25 9 -14
0 -25 3 -25 8 0 6 -24 11 -77 15 -13 0 -23 5 -23 10 0 5 -7 4 -16 -3 -12 -11
-15 -11 -12 0 2 10 -14 13 -64 14 -36 1 -64 4 -62 7 2 4 -7 9 -21 11 -13 3
-22 1 -19 -3 3 -5 0 -9 -5 -9 -6 0 -11 6 -12 13 0 9 -2 9 -5 0 -3 -7 -13 -9
-22 -6 -9 4 -30 7 -46 6 -17 0 -34 5 -38 11 -5 7 -8 7 -8 1 0 -12 -239 -14
-257 -2 -6 4 -14 3 -18 -3 -3 -5 -24 -8 -45 -6 -26 3 -40 0 -40 -7 0 -7 -5 -5
-10 3 -7 10 -10 11 -10 2 0 -8 -11 -11 -35 -9 -19 2 -32 1 -30 -3 3 -5 -18 -7
-45 -5 -33 2 -50 -1 -50 -8 0 -7 -5 -5 -10 3 -5 8 -10 10 -10 4 0 -6 -11 -10
-25 -9 -14 2 -25 0 -25 -3 0 -4 -21 -7 -48 -7 -26 1 -53 -3 -59 -8 -7 -5 -13
-6 -13 -2 0 4 -7 2 -15 -5 -12 -10 -15 -10 -15 0 0 10 -3 10 -15 0 -8 -7 -22
-10 -30 -6 -8 3 -15 1 -15 -5 0 -6 -5 -7 -11 -3 -6 3 -15 0 -20 -7 -6 -10 -9
-8 -9 9 0 12 5 22 10 22 6 0 10 7 10 15 0 8 5 15 11 15 5 0 7 5 4 10 -3 6 -3
10 2 10 4 0 19 17 33 37 25 37 53 73 77 98 7 7 9 15 6 19 -4 3 2 6 12 6 10 0
16 2 13 5 -3 3 24 36 61 72 55 55 72 67 104 69 28 3 36 0 31 -9 -6 -9 -4 -9 7
-1 8 5 25 9 39 7 14 -2 30 -3 35 -3 6 0 52 1 102 3 51 1 93 5 93 8 0 3 21 4
48 3 26 -1 53 4 61 10 11 8 13 8 8 0 -7 -12 32 -12 66 0 40 14 47 15 47 3 0
-9 3 -9 9 1 4 7 12 12 17 11 23 -4 35 2 28 14 -5 8 -2 8 9 -2 9 -7 17 -9 17
-4 0 6 11 9 25 8 14 -2 25 0 25 3 0 4 17 8 38 10 56 3 61 4 66 17 2 7 16 11
30 10 14 -2 28 1 32 6 3 5 16 9 30 9 13 0 24 6 24 13 0 9 3 8 9 -2 7 -11 11
-10 20 5 6 11 11 15 11 10 0 -5 8 -2 17 5 15 12 16 12 8 -1 -8 -13 -7 -13 8
-1 9 7 17 10 17 7 0 -4 7 0 16 8 8 9 20 14 25 11 5 -4 9 -1 9 5 0 6 4 9 9 6 5
-3 12 1 15 10 3 8 10 13 15 10 9 -6 88 31 118 55 15 12 16 12 9 -1 -4 -8 2 -5
13 8 11 13 24 23 28 23 14 1 63 33 63 41 0 4 7 5 15 1 9 -3 15 -2 13 3 -2 5 1
11 7 14 5 3 20 15 33 27 14 13 29 20 34 17 4 -3 7 -2 6 3 -2 5 8 20 22 34 24
25 42 30 56 16z m1292 -816 c2 -6 7 -9 11 -7 9 6 63 -28 63 -40 0 -5 5 -7 12
-6 6 2 8 0 4 -4 -4 -4 -4 -12 1 -18 5 -6 11 -28 14 -49 3 -21 7 -41 10 -43 3
-3 1 -19 -3 -35 -5 -17 -5 -31 1 -35 6 -4 6 -11 -2 -20 -9 -11 -9 -14 1 -14 9
0 9 -4 2 -13 -6 -7 -7 -18 -3 -26 5 -8 7 -26 4 -41 -2 -16 1 -31 6 -34 6 -4 7
-17 3 -29 -4 -12 -7 -38 -6 -57 1 -19 -3 -43 -8 -52 -6 -12 -5 -18 2 -18 8 0
8 -6 0 -20 -6 -11 -8 -25 -5 -30 3 -5 -3 -14 -12 -20 -14 -8 -15 -13 -5 -17
10 -4 9 -9 -4 -24 -9 -10 -13 -19 -9 -19 4 0 0 -9 -9 -19 -10 -11 -15 -25 -10
-32 4 -7 3 -10 -3 -6 -5 3 -17 -7 -27 -24 -9 -16 -22 -29 -27 -29 -6 0 -7 -4
-4 -10 3 -5 -1 -10 -10 -10 -9 0 -14 -4 -11 -8 2 -4 -9 -17 -25 -27 -16 -11
-29 -23 -29 -27 0 -5 -6 -8 -14 -8 -8 0 -16 -5 -18 -11 -2 -5 -11 -11 -20 -12
-9 -2 -22 -8 -30 -15 -8 -6 -18 -9 -21 -5 -4 3 -7 1 -7 -6 0 -8 -8 -11 -20 -8
-10 3 -20 1 -22 -4 -4 -11 -40 -20 -85 -22 -17 -1 -29 -5 -27 -9 2 -3 -16 -6
-41 -5 -24 0 -47 -2 -50 -5 -3 -3 -19 -4 -36 -2 -22 3 -28 0 -23 -9 6 -9 4 -9
-7 -1 -15 12 -30 11 -63 -2 -15 -6 -17 -4 -11 6 6 9 4 11 -6 5 -17 -11 -99
-13 -99 -3 0 4 -15 7 -32 7 -51 0 -68 4 -68 13 0 4 -11 8 -25 8 -14 0 -25 5
-25 10 0 6 -9 10 -20 10 -11 0 -23 7 -26 15 -4 8 -10 12 -15 9 -5 -3 -9 0 -9
5 0 6 -6 11 -13 11 -7 0 -20 8 -28 18 -9 9 -25 23 -37 31 -11 8 -19 18 -16 23
3 4 1 8 -4 8 -11 0 -60 62 -64 81 -2 7 -9 20 -16 27 -7 8 -10 18 -7 23 4 5 1
9 -4 9 -6 0 -11 9 -11 19 0 11 -5 23 -10 26 -8 5 -7 12 2 23 10 12 10 14 1 8
-9 -5 -13 1 -14 18 -2 38 -3 44 -11 52 -4 4 -2 14 5 22 10 13 9 14 -2 7 -11
-6 -13 -4 -8 8 3 10 3 17 -1 17 -4 0 -7 17 -6 38 0 20 -1 41 -4 47 -7 11 -10
33 -13 85 -1 19 -6 41 -12 48 -6 8 -6 12 0 12 6 0 9 14 7 30 -3 23 0 30 14 30
15 0 15 2 2 10 -11 7 -11 10 -2 10 7 0 10 5 7 10 -3 6 -3 10 2 10 4 0 21 11
36 24 16 14 37 23 48 21 11 -2 17 0 14 5 -3 5 16 12 42 16 27 3 54 11 61 17 7
5 15 7 18 4 3 -3 17 -2 30 3 17 7 24 6 24 -2 0 -7 7 -3 15 8 10 13 14 14 15 5
0 -10 3 -11 14 -2 7 6 35 12 62 14 27 1 55 6 62 10 7 5 12 3 12 -5 0 -11 2
-11 9 0 5 8 34 14 78 16 38 1 74 6 81 9 6 4 14 3 17 -3 4 -7 11 -7 18 -2 7 5
34 10 62 11 27 1 51 3 52 5 1 1 85 1 185 0 123 -1 184 -6 186 -13z m-2443
-165 c11 0 26 3 33 8 7 4 12 2 12 -4 0 -6 5 -8 13 -3 17 10 37 13 37 4 0 -4 7
-8 15 -8 8 0 15 5 15 10 0 5 8 3 17 -4 11 -10 14 -10 9 -1 -4 6 -2 12 3 12 6
0 11 -5 11 -10 0 -7 6 -7 20 0 12 6 20 7 20 1 0 -11 19 -9 39 3 11 7 13 5 9
-6 -7 -17 32 -20 44 -3 5 6 8 4 8 -5 0 -13 1 -13 10 0 5 8 10 10 10 3 0 -6 8
-10 18 -9 22 4 72 -13 72 -25 0 -5 6 -9 14 -9 8 0 18 -9 21 -20 3 -11 10 -20
15 -20 4 0 7 -11 6 -25 -2 -14 1 -22 7 -18 5 3 7 0 5 -8 -3 -8 -1 -22 4 -31 5
-11 5 -18 -1 -18 -6 0 -6 -11 -1 -30 5 -16 5 -30 1 -30 -3 0 -7 -9 -7 -20 0
-11 5 -20 11 -20 5 0 3 -5 -5 -10 -8 -5 -10 -10 -4 -10 8 0 9 -11 4 -35 -5
-20 -4 -33 1 -29 5 3 9 1 9 -5 0 -5 -5 -13 -11 -17 -8 -4 -7 -9 2 -16 12 -8
12 -10 0 -15 -11 -5 -11 -7 0 -14 9 -5 10 -9 2 -9 -6 0 -9 -9 -5 -22 4 -16 2
-19 -9 -13 -11 7 -12 6 -3 -6 12 -14 13 -46 2 -64 -3 -6 -4 -20 -3 -32 1 -12
-5 -25 -12 -28 -8 -2 -12 -9 -8 -14 6 -10 -44 -113 -57 -119 -5 -2 -8 -10 -8
-18 0 -9 -4 -12 -10 -9 -5 3 -10 -1 -10 -10 0 -8 -7 -18 -15 -21 -8 -4 -15
-12 -15 -20 0 -8 -4 -13 -8 -11 -4 1 -20 -10 -34 -25 -14 -15 -28 -25 -31 -21
-4 3 -7 1 -7 -6 0 -7 -5 -9 -10 -6 -6 3 -13 -1 -16 -9 -3 -9 -10 -14 -14 -11
-5 3 -15 -1 -23 -9 -8 -8 -17 -12 -21 -9 -3 3 -16 -2 -28 -13 -13 -12 -18 -13
-13 -4 6 10 2 9 -12 -3 -15 -13 -23 -15 -28 -7 -5 8 -11 6 -19 -6 -10 -13 -15
-14 -21 -4 -6 9 -4 11 5 5 9 -6 11 -4 5 5 -7 11 -10 10 -19 -1 -10 -13 -75
-21 -158 -21 -16 0 -25 -5 -22 -10 4 -6 -3 -5 -15 1 -11 7 -21 8 -21 3 0 -10
-30 -9 -48 2 -7 4 -12 2 -12 -6 0 -9 -3 -9 -10 2 -6 9 -10 10 -10 3 0 -8 -9
-9 -30 -3 -17 5 -39 7 -50 5 -11 -2 -20 -1 -20 3 0 4 -14 9 -32 10 -17 2 -38
8 -45 14 -7 6 -13 7 -13 3 0 -5 -10 0 -22 11 -12 10 -18 13 -14 7 4 -7 3 -13
-2 -13 -6 0 -13 7 -16 16 -3 8 -10 13 -15 10 -5 -4 -11 -2 -13 3 -1 5 -9 11
-17 13 -19 4 -139 121 -134 130 2 4 -4 16 -14 26 -17 18 -22 29 -27 60 -1 8
-7 17 -12 20 -5 4 -9 14 -9 22 1 8 -1 20 -4 25 -7 12 -11 30 -16 73 -2 18 -7
37 -10 42 -3 6 0 10 7 10 8 0 9 3 3 8 -10 7 -14 25 -18 99 -1 23 -5 45 -9 49
-4 3 -3 15 3 25 6 13 6 19 -1 19 -5 0 -10 7 -10 16 0 9 5 12 13 8 6 -4 3 2 -7
14 -14 17 -16 22 -5 22 11 0 11 2 -1 10 -11 7 -11 10 -2 10 7 0 11 4 7 9 -7
13 15 61 41 88 23 22 89 55 97 47 2 -3 17 1 33 7 16 6 47 13 69 15 46 4 66 7
80 15 6 2 35 4 67 4 31 0 54 4 51 9 -3 5 0 6 8 4 8 -3 22 -1 32 4 11 6 17 5
17 -2 0 -7 5 -8 13 -3 6 4 33 8 58 9 26 1 51 4 58 8 6 4 11 1 11 -6 0 -8 3 -9
8 -3 4 6 23 10 42 9 19 0 42 3 50 7 8 4 19 5 25 1 5 -3 19 -6 30 -6z m955
-122 c0 5 7 3 15 -4 11 -9 15 -9 15 -1 0 7 5 9 13 4 6 -4 18 -8 26 -10 23 -3
29 -16 34 -68 7 -60 13 -91 23 -107 5 -7 3 -8 -6 -3 -9 6 -11 4 -4 -6 4 -8 10
-32 11 -54 2 -21 7 -42 11 -45 4 -3 7 -16 6 -30 0 -14 5 -40 12 -57 7 -18 11
-33 8 -33 -3 0 -2 -6 3 -12 4 -7 8 -16 9 -20 1 -5 3 -10 4 -13 1 -3 3 -11 4
-17 1 -7 6 -12 11 -11 6 1 11 -10 12 -24 0 -14 7 -29 15 -34 7 -5 9 -9 5 -9
-5 0 6 -18 23 -40 17 -22 28 -40 24 -40 -4 0 3 -9 16 -20 13 -11 21 -20 18
-20 -3 0 15 -21 41 -48 25 -26 52 -46 59 -43 7 2 12 -1 10 -7 -2 -5 2 -11 7
-12 6 -1 14 -8 18 -16 5 -8 12 -12 18 -9 5 4 9 2 9 -4 0 -12 96 -62 104 -54 3
3 8 -2 12 -11 3 -9 10 -13 15 -10 6 3 16 0 24 -6 8 -7 15 -10 15 -6 0 3 12 1
28 -5 33 -13 69 -20 100 -20 14 1 21 -3 16 -10 -4 -8 0 -8 15 0 11 7 21 8 21
4 0 -8 115 -7 137 2 7 2 15 0 18 -5 4 -6 13 -7 24 -1 9 5 29 8 44 7 15 -2 27
0 27 4 0 4 10 6 23 5 12 -1 30 2 40 7 11 6 17 5 17 -2 0 -6 5 -8 12 -4 7 5 19
9 28 10 8 2 29 5 45 9 17 3 37 7 47 8 9 2 23 9 32 16 13 11 16 11 17 0 0 -10
2 -11 6 -1 2 6 9 10 14 6 5 -3 12 2 15 10 3 9 10 13 16 10 5 -3 19 2 30 13 12
10 18 13 15 6 -5 -7 4 -6 23 3 16 9 30 20 30 25 0 6 5 7 10 4 6 -3 10 -1 10 5
0 6 4 9 9 5 6 -3 14 3 20 12 6 10 11 15 11 11 0 -4 19 11 42 32 23 22 45 40
50 40 5 0 7 4 3 9 -3 5 4 13 16 16 13 4 18 12 15 21 -3 9 -1 12 4 9 6 -3 10 1
10 10 0 9 4 14 9 10 5 -3 12 4 16 15 3 11 11 20 16 20 6 0 8 4 4 9 -3 5 -1 12
5 16 6 4 7 11 4 17 -4 6 -3 8 3 5 12 -8 47 69 37 84 -4 8 -3 9 4 5 7 -4 12 -2
12 3 0 20 2 26 11 37 9 11 18 56 21 102 1 12 5 22 9 22 4 0 7 6 6 13 -1 31 4
44 18 44 8 0 11 -5 8 -10 -4 -6 0 -8 10 -4 10 3 17 2 17 -4 0 -6 5 -7 10 -4 6
3 10 1 10 -4 0 -6 5 -11 10 -11 18 0 92 -85 83 -94 -4 -3 -1 -6 6 -6 7 0 9 -4
6 -10 -3 -5 -2 -10 2 -10 14 0 33 -60 20 -61 -8 0 -8 -2 1 -6 6 -2 12 -16 12
-29 0 -13 6 -24 13 -24 9 0 8 -3 -2 -9 -9 -6 -10 -11 -2 -15 7 -5 7 -15 1 -31
-5 -14 -6 -25 -1 -25 10 0 9 -32 0 -40 -4 -3 -9 -23 -12 -45 -6 -47 -16 -77
-31 -87 -7 -5 -7 -8 2 -8 8 0 1 -17 -18 -45 -17 -25 -28 -45 -25 -45 3 0 0 -6
-7 -14 -7 -8 -16 -12 -20 -9 -5 2 -8 -2 -8 -9 0 -22 -106 -102 -122 -92 -4 3
-8 0 -8 -6 0 -7 -7 -10 -15 -6 -8 3 -15 2 -15 -2 0 -5 -27 -8 -60 -8 -33 0
-60 4 -60 8 0 5 -5 6 -10 3 -6 -4 -22 -9 -37 -11 -24 -5 -63 -43 -54 -53 1 -2
-3 -7 -9 -11 -6 -4 -13 -29 -16 -55 -2 -26 -9 -54 -16 -63 -7 -8 -11 -16 -9
-16 2 -1 -1 -25 -8 -53 -7 -29 -17 -51 -21 -48 -5 3 -6 -3 -3 -14 3 -11 -2
-21 -12 -25 -11 -4 -14 -12 -10 -26 3 -11 2 -20 -3 -20 -6 0 -13 -12 -17 -27
-3 -15 -14 -38 -24 -52 -9 -14 -26 -43 -36 -64 -11 -20 -23 -37 -27 -37 -5 0
-8 -7 -8 -15 0 -8 -5 -15 -12 -15 -6 0 -8 -3 -5 -6 6 -6 -69 -105 -86 -112 -4
-2 -5 -8 -1 -13 3 -5 1 -9 -4 -9 -14 0 -52 -36 -52 -49 0 -6 -3 -11 -7 -11 -5
0 -26 -17 -48 -38 -22 -20 -57 -48 -77 -62 -20 -13 -34 -28 -32 -32 3 -4 -1
-8 -9 -8 -8 0 -27 -11 -42 -24 -16 -14 -32 -23 -37 -20 -4 3 -8 0 -8 -7 0 -7
-3 -10 -6 -6 -6 5 -15 0 -49 -30 -11 -10 -14 -10 -18 0 -3 7 -6 5 -6 -6 -1 -9
-4 -17 -8 -16 -16 2 -53 -14 -53 -23 0 -5 -4 -7 -9 -3 -5 3 -13 0 -16 -6 -4
-5 -13 -8 -20 -5 -8 3 -15 0 -17 -5 -2 -6 -11 -11 -20 -12 -9 -2 -24 -9 -34
-17 -10 -8 -15 -10 -11 -3 4 6 -10 3 -31 -7 -21 -10 -51 -20 -68 -22 -16 -2
-32 -7 -35 -11 -3 -4 -19 -10 -35 -12 -16 -2 -31 -4 -34 -5 -3 -2 -8 -2 -12
-1 -5 0 -8 -3 -8 -7 0 -5 -16 -8 -35 -7 -19 0 -35 -2 -35 -5 0 -4 -6 -7 -12
-7 -7 -1 -31 -4 -53 -8 -67 -11 -107 -16 -163 -19 -29 -2 -55 -6 -59 -10 -3
-3 -12 -1 -20 5 -7 6 -13 7 -13 2 0 -12 -73 -11 -82 2 -5 6 -8 6 -8 -2 0 -14
-40 -13 -40 2 0 6 -3 6 -8 -1 -9 -14 -104 -13 -114 1 -5 6 -8 6 -8 -2 0 -12
-17 -12 -37 0 -8 5 -13 3 -13 -4 0 -8 -4 -8 -12 -2 -7 5 -30 9 -50 8 -21 -1
-38 3 -38 9 0 6 -5 4 -10 -4 -6 -10 -10 -11 -10 -2 0 6 -3 11 -7 11 -5 -1 -10
-1 -13 0 -3 1 -29 4 -59 6 -30 3 -57 8 -60 13 -3 4 -22 9 -41 11 -19 2 -37 6
-40 10 -3 3 -16 8 -30 10 -14 1 -28 8 -32 15 -4 6 -8 8 -8 4 0 -10 -62 12 -81
29 -9 8 -20 13 -25 12 -25 -4 -45 2 -38 13 5 8 2 9 -9 5 -10 -4 -20 0 -26 11
-6 9 -11 13 -11 8 0 -5 -7 -3 -15 4 -8 7 -15 9 -15 5 0 -5 -8 1 -17 11 -10 10
-25 20 -33 22 -8 2 -16 8 -18 13 -2 5 -10 9 -18 9 -8 0 -17 7 -20 15 -4 8 -10
13 -14 10 -4 -3 -13 2 -20 10 -7 8 -16 12 -21 9 -5 -3 -9 2 -9 10 0 9 -4 16
-10 16 -5 0 -20 11 -34 25 -14 14 -27 25 -30 25 -8 0 -66 61 -66 71 0 5 -7 9
-15 9 -8 0 -15 4 -15 10 0 5 -11 20 -25 34 -14 14 -25 30 -25 36 0 5 -4 10
-10 10 -5 0 -10 7 -10 16 0 8 -4 12 -10 9 -5 -3 -10 1 -10 9 0 9 -4 16 -9 16
-5 0 -13 9 -16 20 -4 12 -16 30 -28 42 -12 11 -15 17 -7 13 15 -9 -15 33 -35
47 -5 4 -7 8 -3 8 4 0 -5 24 -19 52 -15 29 -26 58 -26 65 0 7 -7 13 -14 13 -8
0 -11 4 -8 10 8 13 -34 110 -48 110 -6 0 -18 7 -28 16 -14 13 -21 13 -41 3
-22 -12 -22 -11 -8 6 14 17 14 18 -10 5 -14 -8 -28 -13 -32 -12 -5 1 -8 -2 -8
-7 0 -6 -9 -8 -20 -6 -11 2 -20 -1 -20 -7 0 -7 -5 -6 -14 1 -9 8 -16 8 -20 2
-6 -10 -15 -9 -53 6 -10 3 -27 8 -38 10 -11 2 -21 8 -23 13 -2 5 -10 6 -18 3
-9 -3 -14 1 -14 12 0 9 -4 13 -10 10 -5 -3 -10 -1 -10 4 0 6 -5 11 -11 11 -16
0 -69 52 -63 62 3 5 2 7 -3 6 -4 -2 -10 2 -12 7 -5 10 -16 25 -39 50 -7 8 -15
25 -17 37 -3 12 -9 26 -14 31 -5 5 -7 16 -4 23 3 8 1 14 -4 14 -5 0 -10 6 -11
13 -1 6 -4 28 -8 47 -11 62 -11 85 0 92 8 6 8 8 0 8 -7 0 -10 12 -7 28 2 15 6
38 8 52 1 14 4 27 5 30 1 3 2 8 1 13 0 4 4 7 10 7 5 0 7 5 4 10 -3 6 -1 10 5
10 6 0 9 4 6 9 -7 11 43 77 55 73 6 -1 8 2 4 8 -3 5 2 13 12 17 10 3 21 12 25
19 11 17 51 5 44 -12 -3 -8 -2 -14 2 -14 4 0 9 -10 9 -22 1 -13 7 -24 13 -26
5 -2 7 -8 4 -13 -3 -6 1 -21 10 -34 9 -13 16 -31 16 -40 0 -8 5 -15 10 -15 6
0 10 -7 10 -15 0 -8 4 -15 9 -15 5 0 12 -11 15 -25 4 -14 11 -25 17 -25 6 0 7
-4 4 -10 -3 -5 1 -10 9 -10 14 0 20 -12 17 -32 0 -5 4 -8 9 -8 15 0 60 -46 60
-61 0 -7 3 -9 6 -6 4 3 23 -7 42 -23 19 -16 39 -27 44 -24 5 3 7 2 6 -3 -2 -4
0 -8 3 -8 4 0 17 -9 29 -20 12 -11 24 -19 26 -17 12 7 24 0 18 -10 -4 -6 -3
-8 2 -5 6 3 29 -3 52 -13 24 -11 41 -16 38 -11 -3 4 1 8 9 8 8 0 13 -5 12 -10
-1 -6 12 -12 28 -13 64 -5 85 -9 85 -15 0 -12 244 -8 252 4 5 8 8 7 8 -3 0
-13 1 -13 10 0 8 12 10 12 10 1 0 -11 3 -11 17 0 11 10 14 10 9 2 -4 -7 -2
-13 3 -13 6 0 11 5 11 11 0 6 9 9 20 6 11 -3 20 -2 20 1 0 4 22 7 50 7 27 -1
50 3 50 8 0 5 7 7 15 3 8 -3 15 -2 15 3 0 5 10 8 23 7 12 -1 32 4 44 12 12 7
24 13 27 13 20 -3 26 0 20 11 -4 7 -3 8 5 4 6 -4 23 -1 36 8 13 9 31 16 39 16
8 0 16 4 18 8 2 4 20 18 41 31 20 12 37 27 37 32 0 5 10 9 23 9 18 0 19 2 7
10 -11 7 -12 10 -2 10 12 0 82 66 82 78 0 2 10 13 22 23 11 11 17 19 12 19 -5
0 -4 4 1 8 17 12 57 72 48 72 -4 0 0 5 9 11 10 5 15 16 12 24 -4 8 -1 15 5 15
6 0 10 3 9 8 -1 4 3 17 10 30 7 12 10 22 6 22 -3 0 -1 7 6 15 6 8 9 19 5 25
-3 5 -2 10 4 10 5 0 8 9 6 20 -2 11 1 22 6 25 5 4 7 10 4 15 -3 5 -1 11 5 15
5 3 10 11 10 16 0 6 -5 7 -12 3 -7 -5 -8 -3 -3 6 5 8 10 29 11 48 1 18 4 36 7
39 3 3 2 15 -3 27 -4 13 -4 29 1 39 6 9 6 17 2 17 -10 0 -9 62 1 78 4 7 3 12
-2 12 -10 0 -9 30 2 48 4 6 4 12 -1 12 -17 0 -8 68 11 80 11 7 16 7 12 1 -4
-7 -1 -8 8 -5 9 3 16 11 16 17 0 6 3 7 7 4 3 -4 13 -1 21 6 13 10 14 9 7 -3
-8 -13 -6 -13 8 -2 9 8 21 11 27 7 5 -3 10 -2 10 3 0 5 20 8 45 7 25 0 45 4
45 9 0 6 5 4 10 -4 5 -8 10 -11 10 -6z"/>
<path d="M3500 2717 c0 -4 -4 -6 -9 -2 -5 3 -12 1 -16 -5 -4 -6 -10 -8 -15 -5
-5 3 -14 0 -22 -7 -7 -7 -20 -14 -28 -16 -8 -2 -17 -7 -20 -10 -3 -4 -20 -20
-38 -35 -19 -15 -30 -27 -26 -27 4 0 -6 -12 -22 -27 -16 -15 -28 -33 -26 -40
2 -7 -2 -13 -8 -13 -5 0 -9 -3 -9 -7 3 -19 -2 -34 -9 -29 -5 3 -8 -7 -7 -22 1
-15 -2 -31 -6 -37 -4 -5 -6 -27 -5 -47 1 -21 -3 -38 -8 -38 -4 0 -3 -7 4 -15
6 -8 9 -19 5 -25 -3 -5 -1 -10 5 -10 6 0 8 -5 5 -10 -3 -6 1 -13 9 -16 9 -3
13 -11 9 -18 -3 -6 -2 -8 2 -3 5 4 19 0 33 -9 20 -13 26 -14 33 -3 7 11 9 11
9 1 0 -9 5 -10 19 -3 10 6 20 8 22 6 13 -12 50 68 53 111 3 69 30 114 85 143
33 18 109 20 115 4 3 -7 11 -11 18 -8 21 7 79 -78 81 -119 1 -20 5 -36 10 -36
4 0 7 -4 7 -10 0 -12 40 -54 40 -42 0 4 5 0 10 -8 7 -11 10 -11 10 -2 0 7 5
10 10 7 6 -4 7 -12 3 -18 -5 -8 -2 -8 9 0 8 7 18 10 21 6 4 -3 7 -1 7 6 0 7 5
9 10 6 6 -3 13 1 16 9 3 9 10 13 15 11 5 -3 11 6 15 20 3 14 9 25 13 25 4 0 6
19 4 41 -5 63 -47 179 -65 179 -5 0 -7 4 -4 8 3 5 -6 16 -19 26 -14 10 -22 22
-19 27 5 8 -10 13 -28 10 -5 0 -8 5 -8 12 0 14 -80 57 -105 57 -8 0 -15 4 -15
8 0 4 -38 8 -85 8 -47 -1 -85 -4 -85 -9z"/>
<path d="M1540 2561 c0 -3 -12 -7 -26 -8 -15 0 -30 -7 -35 -15 -7 -10 -9 -10
-9 0 0 10 -4 10 -19 0 -11 -7 -17 -16 -14 -22 4 -5 1 -6 -6 -2 -7 5 -18 0 -26
-10 -8 -11 -15 -15 -15 -11 0 11 -50 -44 -50 -55 0 -5 -4 -7 -9 -4 -7 4 -31
-35 -33 -54 -1 -3 -8 -11 -17 -18 -9 -8 -11 -11 -4 -7 9 4 8 -3 -2 -21 -8 -15
-12 -31 -9 -36 3 -4 1 -8 -5 -8 -5 0 -10 -8 -10 -17 0 -10 -1 -41 -1 -70 -1
-59 19 -99 59 -115 35 -15 71 -17 71 -5 0 6 3 8 6 5 5 -6 48 30 50 42 0 3 4
13 8 23 5 9 6 26 3 37 -3 11 -2 20 2 20 6 0 10 20 11 64 1 10 3 16 6 13 8 -7
50 36 46 47 -2 5 4 6 13 3 8 -4 15 -2 15 2 0 5 11 8 25 6 14 -1 25 1 25 5 0 9
26 7 36 -2 3 -4 11 -5 18 -2 13 5 86 -58 86 -75 0 -6 3 -11 8 -11 4 0 8 -13 9
-28 3 -45 7 -56 23 -69 8 -7 11 -13 5 -13 -5 0 4 -8 20 -18 17 -10 44 -18 61
-16 39 3 91 51 89 82 -1 12 3 22 9 22 6 0 4 5 -4 10 -13 9 -13 10 0 10 9 0 11
3 5 8 -12 8 -18 29 -17 54 0 10 -4 20 -9 23 -5 4 -7 11 -4 16 4 5 1 9 -5 9 -6
0 -10 8 -8 18 2 9 -3 16 -9 15 -7 -2 -13 6 -13 17 0 11 -4 20 -10 20 -5 0 -10
7 -10 15 0 8 -7 15 -16 15 -8 0 -13 3 -11 8 3 4 -1 13 -9 20 -8 7 -14 10 -14
7 0 -3 -12 6 -27 20 -15 14 -33 25 -40 25 -7 0 -13 4 -13 10 0 5 -7 7 -15 4
-8 -4 -15 -1 -15 7 0 7 -3 9 -6 6 -4 -3 -15 -2 -25 4 -14 7 -19 6 -19 -3 0 -9
-3 -10 -8 -2 -7 12 -112 17 -112 5z"/>
<path d="M2756 1553 c-1 -1 -30 -3 -64 -4 -34 -1 -60 -5 -58 -8 2 -3 -30 -8
-73 -10 -106 -5 -114 -6 -128 -14 -6 -4 -18 -4 -27 -1 -9 3 -16 2 -16 -4 0 -6
-9 -8 -20 -5 -11 3 -26 1 -33 -4 -6 -5 -27 -10 -46 -11 -18 -2 -42 -7 -52 -13
-11 -5 -24 -7 -29 -4 -6 3 -10 1 -10 -5 0 -7 -7 -10 -15 -7 -8 4 -17 2 -20 -3
-4 -6 -16 -10 -29 -10 -12 0 -27 -5 -33 -11 -6 -6 -17 -12 -24 -13 -33 -7 -79
-29 -75 -35 3 -4 -4 -8 -15 -8 -19 -2 -89 -63 -72 -63 5 0 10 -8 11 -17 6 -50
8 -58 15 -64 4 -3 9 -16 10 -27 1 -12 4 -22 8 -22 9 0 24 -40 28 -71 0 -5 5
-8 10 -5 5 3 12 -5 15 -18 3 -13 19 -38 35 -55 16 -17 27 -31 25 -31 -2 0 16
-18 38 -40 23 -22 48 -40 56 -40 7 0 10 -4 7 -10 -3 -5 -1 -11 4 -11 6 -1 16
-2 21 -3 6 0 10 -5 9 -11 0 -9 40 -29 54 -27 4 1 7 -3 7 -9 0 -5 4 -8 9 -4 5
3 15 -1 23 -8 7 -7 20 -12 28 -12 8 0 21 -5 28 -12 7 -7 19 -10 26 -7 8 3 17
0 21 -5 3 -6 10 -9 15 -6 5 3 12 1 15 -5 5 -8 11 -7 21 1 8 6 14 7 14 2 0 -6
12 -9 28 -8 15 1 33 -2 40 -8 8 -6 12 -6 12 2 0 6 5 11 10 11 6 0 10 -8 10
-17 0 -14 2 -15 9 -5 11 17 21 17 32 0 7 -10 9 -10 9 2 0 13 1 13 10 0 8 -12
10 -12 10 -1 0 10 3 11 13 2 8 -6 17 -8 21 -4 6 7 21 11 62 17 11 2 26 6 32
10 7 4 12 1 12 -6 1 -9 3 -9 9 2 7 10 26 15 64 15 30 0 53 3 50 8 -4 7 11 11
35 8 6 -1 12 3 12 9 0 6 5 8 10 5 6 -3 10 -1 10 4 0 6 3 10 8 10 13 -3 72 23
72 31 0 5 9 7 20 5 11 -2 18 0 15 5 -3 5 3 11 12 14 10 3 36 22 58 42 22 20
50 43 62 51 13 8 21 19 18 23 -3 5 3 15 13 22 10 7 21 21 25 31 4 11 12 15 18
11 8 -5 9 -3 4 6 -5 8 -2 18 9 26 10 7 17 16 17 21 0 21 12 52 20 48 4 -3 6 4
4 15 -2 11 1 20 6 20 6 0 8 4 4 9 -3 5 0 13 6 16 5 4 8 13 5 21 -3 8 -1 14 5
14 6 0 9 7 6 15 -4 8 -2 17 3 20 5 3 9 13 9 23 0 9 2 35 4 58 3 22 2 45 -1 50
-10 14 -50 34 -67 34 -8 0 -15 4 -15 9 0 5 -15 11 -32 14 -18 3 -44 7 -58 11
-29 6 -89 16 -145 22 -42 5 -315 11 -319 7z m62 -435 c13 -11 15 -11 7 2 -6
12 -5 13 6 3 7 -7 21 -13 31 -13 10 0 18 -5 18 -11 0 -5 5 -7 12 -3 6 4 16 0
22 -8 6 -8 16 -17 21 -19 6 -2 9 -7 8 -11 -2 -5 2 -8 8 -8 6 0 17 -6 24 -14
12 -12 10 -16 -18 -29 -18 -8 -41 -17 -52 -19 -11 -1 -23 -7 -26 -11 -4 -5
-22 -10 -41 -11 -19 -1 -40 -6 -47 -10 -7 -5 -53 -9 -102 -11 -49 -1 -92 -5
-96 -8 -3 -4 -11 -4 -16 0 -6 4 -38 8 -71 10 -33 2 -62 7 -66 11 -3 4 -14 9
-25 10 -11 2 -21 5 -23 7 -2 2 19 27 47 55 28 29 51 48 51 44 0 -5 6 -1 14 8
7 9 24 19 39 22 15 2 32 8 38 12 7 4 30 9 53 12 23 2 42 5 43 6 9 8 128 -6
141 -16z"/>
</g>
</svg>
